<svg width="1000" height="1000" viewBox="0 0 1000 1000" fill="none" xmlns="http://www.w3.org/2000/svg">
<g clip-path="url(#clip0_366_21)">
<rect width="1000" height="1000" fill="#1E1E2E"/>
<g filter="url(#filter0_d_366_21)">
<path d="M157.812 607L236.523 497.039L256.445 486.297L300.195 416.375H355.859L284.375 518.914L264.062 529.266L213.086 607H157.812ZM305.859 607L255.078 529.266L236.719 519.5L164.258 416.375H219.922L264.062 485.906L281.836 496.648L361.719 607H305.859ZM379.883 653.094V634.539H619.922V653.094H379.883ZM638.281 607L716.992 497.039L736.914 486.297L780.664 416.375H836.328L764.844 518.914L744.531 529.266L693.555 607H638.281ZM786.328 607L735.547 529.266L717.188 519.5L644.727 416.375H700.391L744.531 485.906L762.305 496.648L842.188 607H786.328Z" fill="white"/>
</g>
</g>
<defs>
<filter id="filter0_d_366_21" x="117.812" y="376.375" width="764.375" height="316.719" filterUnits="userSpaceOnUse" color-interpolation-filters="sRGB">
<feFlood flood-opacity="0" result="BackgroundImageFix"/>
<feColorMatrix in="SourceAlpha" type="matrix" values="0 0 0 0 0 0 0 0 0 0 0 0 0 0 0 0 0 0 127 0" result="hardAlpha"/>
<feOffset/>
<feGaussianBlur stdDeviation="20"/>
<feComposite in2="hardAlpha" operator="out"/>
<feColorMatrix type="matrix" values="0 0 0 0 1 0 0 0 0 1 0 0 0 0 1 0 0 0 1 0"/>
<feBlend mode="normal" in2="BackgroundImageFix" result="effect1_dropShadow_366_21"/>
<feBlend mode="normal" in="SourceGraphic" in2="effect1_dropShadow_366_21" result="shape"/>
</filter>
<clipPath id="clip0_366_21">
<rect width="1000" height="1000" fill="white"/>
</clipPath>
</defs>
</svg>
